<svg id="b49692ed-2eb7-4d61-acc0-ad08cd18a5f2" data-name="Layer 1" xmlns="http://www.w3.org/2000/svg" width="160" height="600" viewBox="0 0 160 600">
  <title>160x600_logo_starbucks</title>
  <g>
    <g>
      <circle cx="80.21" cy="78.79" r="44.03" fill="#097341"/>
      <path d="M47.19,90.72c-3.64,0-4.84,3.36-8.32,3.2-.34-.94-.66-1.89-.93-2.86,3.69.38,5-3.33,9.28-3.24,0,.63,0,1.25,0,1.87C47.18,90,47.19,90.39,47.19,90.72Z" fill="#fff"/>
      <path d="M47.93,96.79c-3.31-.25-4,2.82-6.38,3.07-.44-.8-.85-1.6-1.23-2.42,2.51-.15,3.37-3.39,7.18-3.12C47.62,95.15,47.75,96,47.93,96.79Z" fill="#fff"/>
      <path d="M37.05,87.48a30.22,30.22,0,0,1-.52-3.3c5,.81,6.75-3.65,11.86-3.42-.31,1.1-.56,2.21-.76,3.34C43.43,84.1,41.73,88.07,37.05,87.48Z" fill="#fff"/>
      <path d="M36.24,81c0-.75-.05-1.51-.05-2.26,0-.47,0-1,0-1.44,6.13.84,8.39-4.72,15-3.55a33.44,33.44,0,0,0-1.73,3.68C44.2,76.88,42,81.69,36.24,81Z" fill="#fff"/>
      <path d="M51.74,106.56c-1.44.4-2.44,1.85-3.19,2.82-.49-.51-1-1-1.46-1.57.87-1,2-2.55,3.68-3C51.08,105.4,51.41,106,51.74,106.56Z" fill="#fff"/>
      <path d="M53.54,109.31c.36.49.73,1,1.13,1.44a7.89,7.89,0,0,0-2,2.36c-.51-.4-1-.82-1.49-1.26A8.25,8.25,0,0,1,53.54,109.31Z" fill="#fff"/>
      <path d="M37.41,73.79C42.16,68.72,46,63,45.49,56.31a.4.4,0,0,1,.66-.37,11.58,11.58,0,0,1,4.61,7.62,11.49,11.49,0,0,1,10.53-1.15,33.64,33.64,0,0,0-8.51,8.73C46.46,68.94,42.29,75.28,37.41,73.79Z" fill="#fff"/>
      <path d="M62,106.2c0,3.75-3.94,6.73-4.32,10.44a21.53,21.53,0,0,1-1.86-1.18c.6-4.45,6.62-7.52,5-12.72A6.8,6.8,0,0,1,62,106.2Z" fill="#fff"/>
      <path d="M49.51,102c-2.29.08-3.35,2.19-4.62,3.06h0c-.46-.64-.93-1.31-1.37-2,1.4-.77,2.63-3,5.26-3.19-.26-.84-.51-1.7-.7-2.59a10.94,10.94,0,0,0,7.31-3c-.72-4.22,5.75-8.5,5.75-11.59,0-3.35-1.66-5.2-1.66-9.72a14.12,14.12,0,0,1,4-9.46A7.87,7.87,0,0,1,65,62.33a15.84,15.84,0,0,0-4,9.93c0,4.25,2,6.49,2,10.43S57.31,90,57.31,94c0,1.6.51,3.15,2.18,6.21-2.57,2.57-5.89,4-8.05,4a1.22,1.22,0,0,1-1.3-.77C49.92,103,49.71,102.49,49.51,102Z" fill="#fff"/>
      <path d="M67.29,106.45c0,4-4.5,8-4.63,12.72-.82-.34-1.6-.72-2.39-1.13.22-4.1,4.37-8.57,4.37-11.93,0-3.78-4.92-7.59-4.92-12.07s5.67-7.57,5.67-11.5S63,76.36,63,71.32a13.43,13.43,0,0,1,4.43-9.79,6.85,6.85,0,0,1,1.51-1.06c-2.54,3.07-4,5.83-4,10,0,4.73,2.78,7.36,2.78,12S62.11,89.72,62.11,94,67.29,102,67.29,106.45Z" fill="#fff"/>
      <path d="M69.12,121.41c-1.16-.29-2.3-.65-3.43-1-.48-4.8,4.58-9.73,4.58-13.64,0-4.32-5.38-8-5.38-12.69s5.47-6.82,5.47-11.6S67,75,67,69.75a12.9,12.9,0,0,1,5-10.12l.18-.13c.27-.21.5,0,.31.28A13.67,13.67,0,0,0,69.27,69c0,4.82,3.84,8.74,3.84,13.42,0,5.53-5.17,7.11-5.17,11.63s5.55,8.16,5.55,13C73.49,111.42,68.34,116.31,69.12,121.41Z" fill="#fff"/>
      <path d="M72.42,67.09A1.39,1.39,0,0,1,71.9,66c0-.6.59-1,1.82-1,1.66,0,3.33,1,3.25,2C75.09,66.25,73.29,66.22,72.42,67.09Z" fill="#fff"/>
      <path d="M83.92,107.07c0,4.15,5.07,8.72,4.19,15a43.59,43.59,0,0,1-15.78,0c-.89-6.31,4.18-10.88,4.18-15,0-4.55-5.75-8.58-5.75-13,0-4.17,4.13-5.55,4.67-9.83a1,1,0,0,1,1.18-.9,14.06,14.06,0,0,0,3.61.7,14.25,14.25,0,0,0,3.6-.7,1,1,0,0,1,1.18.9c.54,4.28,4.66,5.66,4.66,9.83C89.66,98.49,83.92,102.52,83.92,107.07Z" fill="#fff"/>
      <path d="M88.55,66a1.45,1.45,0,0,1-.54,1.1c-.75-.87-2.32-.84-4.11-.23a1.07,1.07,0,0,1,0-.77A3.88,3.88,0,0,1,86.73,65C87.94,65,88.55,65.39,88.55,66Z" fill="#fff"/>
      <path d="M87.73,68.54a2.78,2.78,0,0,1-1.93.63c-1.14,0-1.45-.48-2.13-.48S83,70.41,82,70.51a8.31,8.31,0,0,1-.15-5.32,5.15,5.15,0,0,1,4-1.68,6,6,0,0,1,2.49.49c.26.11.36,0,.29-.26-.9-3-4.32-5.33-8.41-5.33s-7.52,2.32-8.42,5.33c-.06.23,0,.37.3.26a6,6,0,0,1,2.48-.49,5.14,5.14,0,0,1,4,1.68,7.26,7.26,0,0,1,0,4.19c-.67-.15-.92-.69-1.59-.69s-1.19.48-2.34.48-1.26-.54-2-.54-1.05.91-1.05,1.94c0,4.58,4.19,10.91,8.65,10.91s8.64-6.33,8.64-10.91C88.86,69.54,88.65,68.66,87.73,68.54Zm-8.54,3.9c.38,0,.49.19,1,.19s.66-.19,1-.19a1.79,1.79,0,0,1,1.18.54.58.58,0,0,1-.17.34c-.78.11-1.13.55-2,.55s-1.25-.44-2-.55A.52.52,0,0,1,78,73,1.79,1.79,0,0,1,79.19,72.44Zm1,5.57c-1.93,0-2.56-1.62-3.5-2.34a.52.52,0,0,1,.3-.29,17.75,17.75,0,0,0,6.39,0,.52.52,0,0,1,.3.29C82.79,76.39,82.15,78,80.22,78Z" fill="#fff"/>
      <path d="M90.15,106.73c0,3.91,5,8.86,4.6,13.64-1.12.39-2.28.73-3.44,1,.77-5.09-4.38-10-4.38-14.39,0-4.81,5.56-8.44,5.56-13s-5.18-6.1-5.18-11.63c0-4.68,3.85-8.6,3.85-13.42A13.72,13.72,0,0,0,88,59.78c-.2-.25,0-.49.31-.28a.59.59,0,0,0,.18.13,13,13,0,0,1,5,10.12c0,5.27-3.35,7.92-3.35,12.69s5.48,7,5.48,11.6S90.15,102.41,90.15,106.73Z" fill="#fff"/>
      <path d="M92.31,54.76A32,32,0,0,1,96,47.27,16,16,0,0,0,86,51.8l-2-5.18,4.35-3.88-5.82-.41-2.33-5.46-2.33,5.46-5.84.41,4.36,3.88-2,5.18a16,16,0,0,0-10-4.53,33.62,33.62,0,0,1,3.74,7.49,14.55,14.55,0,0,0-8.31-3.22,40.28,40.28,0,0,1,4.92,8.06.53.53,0,0,0,.79.26,32.94,32.94,0,0,1,29.35,0,.52.52,0,0,0,.79-.26,40.28,40.28,0,0,1,4.92-8.06A14.46,14.46,0,0,0,92.31,54.76ZM84.64,53.4a26.65,26.65,0,0,0-8.85,0c-.23.05-.31-.18-.13-.31l4.56-3.48s4.4,3.37,4.57,3.48S84.87,53.45,84.64,53.4Z" fill="#fff"/>
      <path d="M95.79,106.11c0,3.36,4.16,7.83,4.37,11.93-.79.41-1.57.79-2.39,1.13-.15-4.74-4.63-8.73-4.63-12.72,0-4.45,5.19-8.08,5.19-12.41s-5.58-6.89-5.58-11.53,2.76-7.26,2.76-12c0-4.2-1.45-7-4-10A7.1,7.1,0,0,1,93,61.53a13.47,13.47,0,0,1,4.43,9.79c0,5-2.42,7.3-2.42,11.22s5.67,7,5.67,11.5S95.79,102.33,95.79,106.11Z" fill="#fff"/>
      <path d="M104.57,115.46c-.62.43-1.24.82-1.88,1.18-.37-3.71-4.3-6.69-4.3-10.44a6.79,6.79,0,0,1,1.18-3.46C98,107.94,104,111,104.57,115.46Z" fill="#fff"/>
      <path d="M109.27,111.85c-.49.44-1,.86-1.49,1.26a7.69,7.69,0,0,0-2-2.36c.39-.47.77-1,1.13-1.44A8.18,8.18,0,0,1,109.27,111.85Z" fill="#fff"/>
      <path d="M113.32,107.79c-.46.54-.95,1.08-1.45,1.59-.76-1-1.74-2.42-3.19-2.82.34-.57.67-1.16,1-1.75C111.33,105.26,112.46,106.84,113.32,107.79Z" fill="#fff"/>
      <path d="M111.65,99.91c2.65.15,3.86,2.42,5.27,3.19-.44.67-.9,1.32-1.37,2-1.28-.85-2.34-3-4.63-3l-.62,1.44a1.24,1.24,0,0,1-1.33.77c-2.14,0-5.48-1.41-8-4,1.67-3.06,2.16-4.61,2.16-6.21,0-4-5.69-7.44-5.69-11.35s2-6.18,2-10.43a15.92,15.92,0,0,0-4-9.93,8.4,8.4,0,0,1,1.5,1.23A14.1,14.1,0,0,1,101,73c0,4.52-1.69,6.37-1.69,9.72,0,3.09,6.49,7.37,5.76,11.59a10.94,10.94,0,0,0,7.32,3C112.16,98.21,111.93,99.07,111.65,99.91Z" fill="#fff"/>
      <path d="M112.93,94.32c3.81-.27,4.68,3,7.18,3.12-.38.82-.79,1.62-1.23,2.42-2.37-.25-3.07-3.32-6.39-3.07C112.67,96,112.82,95.15,112.93,94.32Z" fill="#fff"/>
      <path d="M99.14,62.41a11.5,11.5,0,0,1,10.54,1.15,11.51,11.51,0,0,1,4.61-7.62.39.39,0,0,1,.65.37c-.51,6.64,3.35,12.41,8.08,17.48-4.87,1.49-9-4.85-15.37-2.65A33.33,33.33,0,0,0,99.14,62.41Z" fill="#fff"/>
      <path d="M122.5,91.06c-.28,1-.6,1.92-.94,2.86-3.48.16-4.67-3.23-8.32-3.2,0-.33,0-.69,0-1,0-.62,0-1.24-.07-1.87C117.49,87.73,118.78,91.44,122.5,91.06Z" fill="#fff"/>
      <path d="M123.9,84.18a30.22,30.22,0,0,1-.52,3.3c-4.69.59-6.38-3.38-10.6-3.38-.19-1.13-.44-2.24-.73-3.34C117.15,80.53,118.93,85,123.9,84.18Z" fill="#fff"/>
      <path d="M124.25,78.78c0,.75,0,1.51,0,2.26-5.79.65-8-4.16-13.25-3.57a30.14,30.14,0,0,0-1.73-3.68c6.6-1.17,8.86,4.39,15,3.55C124.25,77.82,124.25,78.31,124.25,78.78Z" fill="#fff"/>
    </g>
    <path d="M108.34,117.07a3.15,3.15,0,1,1,0,6.29,3.15,3.15,0,1,1,0-6.29Zm0,.55a2.59,2.59,0,0,0,0,5.17,2.47,2.47,0,0,0,2.46-2.58,2.51,2.51,0,0,0-2.48-2.59Zm-.55,4.3h-.61v-3.28a6.28,6.28,0,0,1,1.14-.1,1.61,1.61,0,0,1,1,.25.88.88,0,0,1,.33.71.84.84,0,0,1-.63.77v0a1,1,0,0,1,.53.8,2.25,2.25,0,0,0,.26.81h-.63a2.52,2.52,0,0,1-.28-.84c-.08-.38-.29-.54-.75-.54h-.39v1.38Zm0-1.85h.41c.44,0,.85-.13.85-.51s-.22-.55-.79-.55a2.3,2.3,0,0,0-.47,0Z" fill="#097341"/>
  </g>
</svg>
