<svg id="ac22c160-57b0-4759-878d-20e15407a495" data-name="Layer 1" xmlns="http://www.w3.org/2000/svg" width="160" height="600" viewBox="0 0 160 600">
  <title>160x600_brendan_headline14_black</title>
  <g>
    <g>
      <path d="M36,495.3h3.89V476.1H36v-1.79H46.09c6.79,0,8.47,2.59,8.47,5.49,0,1.86-1.23,4.45-5.74,5.25v.11c4.58.34,6.82,2.69,6.82,5.49,0,3.28-1.92,6.47-9.51,6.47H36Zm10.29-11c3.67,0,5.14-1.71,5.14-4.41,0-2.37-1.16-3.77-5-3.77H42.8v8.18Zm0,11c4.44,0,6.16-1.47,6.16-4.86,0-2.66-2-4.48-6.3-4.48H42.8v9.34Z" fill="#302f2a"/>
      <path d="M59.77,495.3h2.62V483.2H59.77v-1.82h5.28v3.71c1-2.66,2.94-3.92,4.76-3.92a2.37,2.37,0,0,1,2.55,2.41,1.94,1.94,0,0,1-1.89,2,1.78,1.78,0,0,1-1.89-1.82,1.57,1.57,0,0,1,.14-.66c-1.75-.18-3.15,2-3.6,3.67v8.5H68.2v1.82H59.77Z" fill="#302f2a"/>
      <path d="M78.55,489.39c.07,4.09,2.07,6.19,5,6.19a4.41,4.41,0,0,0,4.47-3.08h1.47A6.35,6.35,0,0,1,83,497.43c-4.58,0-7.38-3.32-7.38-8s3.29-8.32,7.49-8.32c4.58,0,6.61,4.13,6.5,8.29Zm0-1.51H86.8c-.24-3.28-1.46-5.28-3.88-5.28S78.94,484.39,78.59,487.88Z" fill="#302f2a"/>
      <path d="M107.23,483.2,111,494.32h.1l3.82-11.12h-2.45v-1.82h6.22v1.82h-1.89l-5.1,14.13h-2.24l-3.57-10.15-4.12,10.15H99.57L94.71,483.2H92.54v-1.82h7.66v1.82H97.54l3.61,11.12h.07l3.84-9.58-.52-1.54h-2.17v-1.82h7.69v1.82Z" fill="#302f2a"/>
      <path d="M121.54,496.6a1.17,1.17,0,1,1,1.17,1.14A1.15,1.15,0,0,1,121.54,496.6Z" fill="#302f2a"/>
    </g>
    <g>
      <path d="M69.15,466.53l-3.67-6h0l.06,6H63.36v-9.12h2.51l3.66,5.95h0l0-5.95h2.13v9.12Z" fill="#302f2a"/>
      <path d="M75.47,466.53v-9.12H81.6v1.85h-4V461h3.78v1.77H77.6v1.89h4.24v1.88Z" fill="#302f2a"/>
      <path d="M94.89,466.53H92.71l-1.8-6.17h0l-1.81,6.17H86.87l-2.59-9.12h2.37l1.45,6.07h0l1.62-6.07h2.29l1.64,6.07h0l1.47-6.07h2.29Z" fill="#302f2a"/>
    </g>
    <g>
      <path d="M57.79,424.58H54.85V422.8h7.73v1.78H59.89l-7,11.4v7.8h3.53v1.82h-10v-1.82H50V436l-6.54-11.44H40.55V422.8h9.51v1.78H46.91l5.25,9.55Z" fill="#302f2a"/>
      <path d="M66.4,437.87c.07,4.09,2.06,6.19,5,6.19A4.4,4.4,0,0,0,75.91,441h1.47a6.36,6.36,0,0,1-6.54,4.93c-4.58,0-7.38-3.33-7.38-8s3.29-8.33,7.48-8.33c4.58,0,6.61,4.13,6.51,8.29Zm0-1.5h8.22c-.24-3.29-1.47-5.28-3.88-5.28S66.78,432.87,66.43,436.37Z" fill="#302f2a"/>
      <path d="M82.1,441.75A4,4,0,0,1,83.19,439c1.22-1.23,2.9-1.68,6-2.17,2.13-.35,2.48-.42,2.48-1v-1.53c0-2.31-1.16-3.15-3.25-3.15a4.7,4.7,0,0,0-3,.91,1.81,1.81,0,0,1-.88,3.39,1.79,1.79,0,0,1-1.85-1.89c0-2.27,2.94-3.88,6.19-3.88,3.6,0,5.53,1.54,5.53,4.72v8.22c0,1.08.35,1.4,1.05,1.4s1-.49,1.39-1.4l1.06.59c-.81,1.79-1.68,2.63-3.26,2.63S92,444.94,92,442.87h-.1a6.19,6.19,0,0,1-5.25,3C83.75,445.85,82.1,444.2,82.1,441.75Zm9.55-1.11v-3.12a12.91,12.91,0,0,1-1.71.35c-3.57.56-4.87,1.3-4.87,3.39A2.44,2.44,0,0,0,87.8,444C89.66,444,91.65,442.45,91.65,440.64Z" fill="#302f2a"/>
      <path d="M100.32,443.78H103v-12.1h-2.63v-1.82h5.29v3.71c1-2.66,2.93-3.92,4.75-3.92a2.37,2.37,0,0,1,2.55,2.42,1.93,1.93,0,0,1-1.88,2,1.78,1.78,0,0,1-1.89-1.82,1.47,1.47,0,0,1,.14-.67c-1.75-.17-3.15,2-3.6,3.67v8.5h3.07v1.82h-8.43Z" fill="#302f2a"/>
      <path d="M116.07,445.08a1.16,1.16,0,1,1,1.16,1.15A1.15,1.15,0,0,1,116.07,445.08Z" fill="#302f2a"/>
    </g>
    <g>
      <path d="M69.15,412.92l-3.67-6h0l.06,6H63.36V403.8h2.51l3.66,5.95h0l0-5.95h2.13v9.12Z" fill="#302f2a"/>
      <path d="M75.47,412.92V403.8H81.6v1.86h-4v1.72h3.78v1.77H77.6V411h4.24v1.88Z" fill="#302f2a"/>
      <path d="M94.89,412.92H92.71l-1.8-6.17h0l-1.81,6.17H86.87l-2.59-9.12h2.37l1.45,6.07h0l1.62-6.07h2.29l1.64,6.07h0l1.47-6.07h2.29Z" fill="#302f2a"/>
    </g>
  </g>
</svg>
