<svg id="bd36d7aa-c390-4912-97d1-7b478b239ce6" data-name="Layer 1" xmlns="http://www.w3.org/2000/svg" width="160" height="600" viewBox="0 0 160 600">
  <title>160x600_cta_discover_yours</title>
  <g>
    <rect x="21.8" y="536.08" width="115.16" height="42.24" fill="#057247"/>
    <g>
      <path d="M52.23,549.69a4.2,4.2,0,0,1-.42,1.94,4,4,0,0,1-1.1,1.34,4.64,4.64,0,0,1-1.54.77,6.42,6.42,0,0,1-1.74.25H44.25v-8.55h3.09a7.6,7.6,0,0,1,1.78.21,4.57,4.57,0,0,1,1.57.7,3.65,3.65,0,0,1,1.11,1.31A4.42,4.42,0,0,1,52.23,549.69Zm-2.15,0a2.67,2.67,0,0,0-.24-1.2,2,2,0,0,0-.63-.76,2.5,2.5,0,0,0-.89-.41,4.4,4.4,0,0,0-1-.12h-1v5h1a4.18,4.18,0,0,0,1.07-.13,2.47,2.47,0,0,0,.9-.41,2,2,0,0,0,.63-.78A2.66,2.66,0,0,0,50.08,549.69Z" fill="#fff"/>
      <path d="M54.84,554v-8.55h2.07V554Z" fill="#fff"/>
      <path d="M64.46,547.66a2.08,2.08,0,0,0-.69-.54,2,2,0,0,0-.83-.19l-.42,0a1.15,1.15,0,0,0-.38.14.9.9,0,0,0-.28.27.76.76,0,0,0,0,.77.75.75,0,0,0,.27.26,2.36,2.36,0,0,0,.42.2l.54.18.9.32a3.57,3.57,0,0,1,.86.47,2.34,2.34,0,0,1,.64.72,2,2,0,0,1,.25,1.07,2.8,2.8,0,0,1-.27,1.27,2.53,2.53,0,0,1-.73.89,3,3,0,0,1-1,.51,4.13,4.13,0,0,1-1.22.17,4.86,4.86,0,0,1-1.77-.32,3.7,3.7,0,0,1-1.43-.91l1.36-1.37a2.54,2.54,0,0,0,.82.64,2.18,2.18,0,0,0,1,.26,1.64,1.64,0,0,0,.45,0,1.16,1.16,0,0,0,.38-.15.8.8,0,0,0,.26-.29,1,1,0,0,0,.1-.44.69.69,0,0,0-.12-.41,1.35,1.35,0,0,0-.35-.31,3.19,3.19,0,0,0-.55-.25l-.76-.25a7.77,7.77,0,0,1-.8-.31,2.83,2.83,0,0,1-.7-.46,2.19,2.19,0,0,1-.5-.69,2.43,2.43,0,0,1-.18-1,2.37,2.37,0,0,1,.29-1.22,2.51,2.51,0,0,1,.76-.83,3.18,3.18,0,0,1,1.06-.47,4.32,4.32,0,0,1,2.67.11,3.79,3.79,0,0,1,1.32.78Z" fill="#fff"/>
      <path d="M74.34,553.84a4.6,4.6,0,0,1-1.92.38,5,5,0,0,1-1.83-.33,4.27,4.27,0,0,1-1.45-.92,4.47,4.47,0,0,1-1-1.43,4.79,4.79,0,0,1-.35-1.84,4.67,4.67,0,0,1,.36-1.86,4.45,4.45,0,0,1,1-1.42,4.34,4.34,0,0,1,1.48-.89,5.16,5.16,0,0,1,1.82-.32,5.23,5.23,0,0,1,1.78.32,3.5,3.5,0,0,1,1.42.94l-1.4,1.4a1.69,1.69,0,0,0-.76-.59,2.55,2.55,0,0,0-1-.2,2.47,2.47,0,0,0-1,.2,2.2,2.2,0,0,0-.78.55,2.41,2.41,0,0,0-.51.83,2.91,2.91,0,0,0-.18,1,3,3,0,0,0,.18,1.06,2.45,2.45,0,0,0,.5.83,2.23,2.23,0,0,0,.77.54,2.37,2.37,0,0,0,1,.19,2.29,2.29,0,0,0,1.08-.24,2.16,2.16,0,0,0,.74-.63l1.43,1.35A4.07,4.07,0,0,1,74.34,553.84Z" fill="#fff"/>
      <path d="M86.53,549.68a4.84,4.84,0,0,1-.35,1.85,4.25,4.25,0,0,1-1,1.44,4.4,4.4,0,0,1-1.48.92,5.12,5.12,0,0,1-1.86.33,5.07,5.07,0,0,1-1.85-.33,4.23,4.23,0,0,1-2.45-2.36,4.84,4.84,0,0,1-.35-1.85,4.73,4.73,0,0,1,.35-1.85,4,4,0,0,1,1-1.41,4.2,4.2,0,0,1,1.47-.89,5.28,5.28,0,0,1,1.85-.32,5.34,5.34,0,0,1,1.86.32,4.34,4.34,0,0,1,1.48.89,4,4,0,0,1,1,1.41A4.73,4.73,0,0,1,86.53,549.68Zm-2.21,0a3,3,0,0,0-.18-1,2.56,2.56,0,0,0-.5-.83,2.23,2.23,0,0,0-.77-.54,2.55,2.55,0,0,0-1-.2,2.47,2.47,0,0,0-1,.2,2.33,2.33,0,0,0-.77.54,2.39,2.39,0,0,0-.5.83,3,3,0,0,0-.18,1,3.12,3.12,0,0,0,.18,1.07,2.56,2.56,0,0,0,.5.83,2.22,2.22,0,0,0,.77.55,2.55,2.55,0,0,0,2,0,2.13,2.13,0,0,0,.77-.55,2.41,2.41,0,0,0,.51-.83A3.12,3.12,0,0,0,84.32,549.68Z" fill="#fff"/>
      <path d="M93.09,554H91l-3.23-8.55h2.32l2,6.06h0l2-6.06h2.28Z" fill="#fff"/>
      <path d="M98.4,554v-8.55h5.74v1.74h-3.75v1.62h3.55v1.65h-3.55v1.77h4V554Z" fill="#fff"/>
      <path d="M111.64,554l-1.86-3.4h-.7V554h-2v-8.55h3.26a5.32,5.32,0,0,1,1.2.13,2.88,2.88,0,0,1,1,.43,2.27,2.27,0,0,1,.75.79,2.54,2.54,0,0,1,.27,1.23,2.23,2.23,0,0,1-.47,1.46,2.5,2.5,0,0,1-1.3.85l2.23,3.66Zm-.09-5.93a.91.91,0,0,0-.12-.49,1,1,0,0,0-.33-.29,1.49,1.49,0,0,0-.45-.14l-.48,0h-1.1v2h1a4.73,4.73,0,0,0,.52,0,1.87,1.87,0,0,0,.49-.15,1.1,1.1,0,0,0,.36-.32A1,1,0,0,0,111.55,548.06Z" fill="#fff"/>
      <path d="M60.34,564.45v3.62H58.28v-3.62l-3.21-4.93h2.5l1.82,3.16,1.82-3.16h2.42Z" fill="#fff"/>
      <path d="M73.9,563.76a4.84,4.84,0,0,1-.35,1.85,4.25,4.25,0,0,1-1,1.44,4.4,4.4,0,0,1-1.48.92,5.12,5.12,0,0,1-1.86.33,5.07,5.07,0,0,1-1.85-.33,4.23,4.23,0,0,1-2.45-2.36,4.84,4.84,0,0,1-.35-1.85,4.77,4.77,0,0,1,.35-1.85,4.06,4.06,0,0,1,1-1.41,4.2,4.2,0,0,1,1.47-.89,5.28,5.28,0,0,1,1.85-.32,5.34,5.34,0,0,1,1.86.32,4.34,4.34,0,0,1,1.48.89,4,4,0,0,1,1,1.41A4.77,4.77,0,0,1,73.9,563.76Zm-2.21,0a3,3,0,0,0-.18-1,2.56,2.56,0,0,0-.5-.83,2.23,2.23,0,0,0-.77-.54,2.51,2.51,0,0,0-1-.2,2.47,2.47,0,0,0-1,.2,2.33,2.33,0,0,0-.77.54,2.39,2.39,0,0,0-.5.83,3,3,0,0,0-.18,1,3.12,3.12,0,0,0,.18,1.07,2.71,2.71,0,0,0,.5.84,2.33,2.33,0,0,0,.77.54,2.55,2.55,0,0,0,2,0,2.23,2.23,0,0,0,.77-.54,2.56,2.56,0,0,0,.51-.84A3.12,3.12,0,0,0,71.69,563.76Z" fill="#fff"/>
      <path d="M83.47,566.25a3.06,3.06,0,0,1-.74,1.09,3.46,3.46,0,0,1-1.16.7,4.57,4.57,0,0,1-3,0,3.27,3.27,0,0,1-1.14-.7,3,3,0,0,1-.73-1.09,3.73,3.73,0,0,1-.25-1.41v-5.32h2v5.16a2.39,2.39,0,0,0,.09.66,1.55,1.55,0,0,0,.28.56,1.18,1.18,0,0,0,.49.39,1.93,1.93,0,0,0,1.49,0,1.28,1.28,0,0,0,.5-.39,1.55,1.55,0,0,0,.28-.56,2.84,2.84,0,0,0,.08-.66v-5.16h2.06v5.32A3.54,3.54,0,0,1,83.47,566.25Z" fill="#fff"/>
      <path d="M91.27,568.07l-1.85-3.39h-.71v3.39h-2v-8.55H90a5.32,5.32,0,0,1,1.2.13,3.06,3.06,0,0,1,1,.43,2.16,2.16,0,0,1,.74.79,2.45,2.45,0,0,1,.28,1.24,2.32,2.32,0,0,1-.47,1.46,2.62,2.62,0,0,1-1.31.84l2.24,3.66Zm-.08-5.93a.83.83,0,0,0-.13-.49.85.85,0,0,0-.33-.29,1.49,1.49,0,0,0-.45-.14l-.47,0H88.7v2h1a3.23,3.23,0,0,0,.53,0,1.92,1.92,0,0,0,.48-.15.89.89,0,0,0,.5-.85Z" fill="#fff"/>
      <path d="M100.5,561.74a1.85,1.85,0,0,0-.69-.53A1.87,1.87,0,0,0,99,561l-.41,0a1.15,1.15,0,0,0-.38.14.94.94,0,0,0-.29.27.73.73,0,0,0-.11.41.7.7,0,0,0,.09.37.89.89,0,0,0,.26.25,2.75,2.75,0,0,0,.42.2l.54.19c.29.09.59.2.91.32a3.39,3.39,0,0,1,.86.46,2.31,2.31,0,0,1,.63.72,2,2,0,0,1,.26,1.07,2.8,2.8,0,0,1-.27,1.27,2.65,2.65,0,0,1-.73.89,3.44,3.44,0,0,1-1.05.52,4.54,4.54,0,0,1-1.22.16,5,5,0,0,1-1.78-.32,3.66,3.66,0,0,1-1.42-.91l1.35-1.37a2.46,2.46,0,0,0,.83.64,2.15,2.15,0,0,0,1,.26,1.61,1.61,0,0,0,.44-.05,1,1,0,0,0,.38-.15.73.73,0,0,0,.26-.29.87.87,0,0,0,.1-.44.71.71,0,0,0-.12-.41,1.26,1.26,0,0,0-.34-.3,2.67,2.67,0,0,0-.56-.26l-.75-.25a6.13,6.13,0,0,1-.81-.31,3,3,0,0,1-.7-.46,2.16,2.16,0,0,1-.49-.69,2.27,2.27,0,0,1-.19-1,2.41,2.41,0,0,1,.29-1.21,2.56,2.56,0,0,1,.76-.84,3.27,3.27,0,0,1,1.06-.47,5,5,0,0,1,1.2-.16,4.42,4.42,0,0,1,1.48.27,3.84,3.84,0,0,1,1.32.79Z" fill="#fff"/>
    </g>
  </g>
</svg>
